<svg xmlns="http://www.w3.org/2000/svg" fill="none" viewBox="0 0 601 207"><rect width="601" height="207" fill="#3D7B6B" rx="10"/><path fill="#fff" d="M218.732 55.754h-6.033v54.21h6.033v-54.21ZM236.827 109.964h-5.876v-39.17h5.798v2.743c4.229-2.351 8.277-3.525 12.142-3.525 5.222 0 8.734 1.41 10.537 4.23 1.8 2.82 2.701 7.834 2.701 15.04v20.682h-5.796V89.439c0-5.432-.536-9.151-1.606-11.164-1.071-2.009-3.356-3.016-6.853-3.016-1.674 0-3.437.25-5.289.745-1.855.497-3.279.98-4.27 1.45l-1.488.705v31.805ZM293.074 75.887h-12.455v18.724c0 4.49.324 7.44.979 8.852.651 1.41 2.205 2.115 4.66 2.115l6.972-.471.392 4.857c-3.5.575-6.164.863-7.99.863-4.074 0-6.894-.993-8.46-2.978-1.568-1.983-2.351-5.77-2.351-11.36V75.888h-5.562v-5.09h5.562V58.807h5.798v11.988h12.455v5.091ZM324.801 88.108c0-4.804-.771-8.199-2.311-10.184-1.542-1.983-4.048-2.976-7.521-2.976-3.474 0-6.084 1.045-7.834 3.133-1.75 2.09-2.651 5.433-2.702 10.027h20.368Zm2.115 17.001 2.271-.236.158 4.622c-5.954.835-11.047 1.252-15.277 1.252-5.639 0-9.635-1.63-11.986-4.895-2.349-3.263-3.525-8.343-3.525-15.237 0-13.734 5.458-20.603 16.374-20.603 5.274 0 9.217 1.476 11.829 4.426 2.609 2.951 3.915 7.587 3.915 13.905l-.312 4.466h-25.852c0 4.335.783 7.547 2.35 9.635 1.568 2.09 4.295 3.134 8.187 3.134 3.889 0 7.846-.156 11.868-.469ZM339.84 109.964v-39.17h5.798v5.328c4.544-3.134 9.322-5.197 14.335-6.189v5.954c-2.193.419-4.478 1.07-6.853 1.957-2.379.89-4.192 1.674-5.446 2.351l-1.958 1.018v28.751h-5.876ZM373.291 53.717h-5.876v56.247h5.876V53.717ZM409.561 88.108c0-4.804-.771-8.199-2.312-10.184-1.541-1.983-4.047-2.976-7.52-2.976-3.474 0-6.084 1.045-7.834 3.133-1.751 2.09-2.652 5.433-2.702 10.027h20.368Zm2.114 17.001 2.272-.236.158 4.622c-5.954.835-11.047 1.252-15.277 1.252-5.64 0-9.635-1.63-11.986-4.895-2.35-3.263-3.525-8.343-3.525-15.237 0-13.734 5.457-20.603 16.374-20.603 5.273 0 9.217 1.476 11.828 4.426 2.61 2.951 3.916 7.587 3.916 13.905l-.313 4.466h-25.851c0 4.335.783 7.547 2.349 9.635 1.568 2.09 4.296 3.134 8.187 3.134 3.89 0 7.847-.156 11.868-.469ZM434.314 104.951c.941.366 2.155.547 3.643.547 1.489 0 3.159-.247 5.013-.743 1.855-.495 3.303-.98 4.348-1.449l1.568-.705V76.045c-3.342-.628-6.45-.942-9.322-.942-3.97 0-6.738 1.269-8.304 3.8-1.568 2.534-2.351 6.463-2.351 11.79 0 6.059.914 10.134 2.742 12.221.835.992 1.724 1.672 2.663 2.037Zm20.37-51.234v56.247h-5.798V107.3c-4.023 2.299-7.991 3.447-11.908 3.447-2.089 0-3.917-.262-5.483-.783-1.567-.52-3.03-1.462-4.388-2.818-2.819-2.822-4.23-8.031-4.23-15.631 0-7.599 1.266-13.082 3.801-16.45 2.532-3.37 6.723-5.053 12.573-5.053 3.027 0 6.239.34 9.635 1.019V53.717h5.798ZM470.662 83.408c0 3.082.692 5.275 2.075 6.58 1.384 1.306 3.669 1.958 6.856 1.958 3.184 0 5.457-.652 6.815-1.957 1.358-1.306 2.038-3.513 2.038-6.62 0-3.108-.68-5.314-2.038-6.62-1.358-1.304-3.631-1.959-6.815-1.959-3.187 0-5.472.667-6.856 1.999-1.383 1.332-2.075 3.537-2.075 6.619Zm-.548 32.666c0 2.768.771 4.687 2.311 5.758 1.54 1.072 4.388 1.606 8.539 1.606 4.152 0 7.128-.574 8.931-1.724 1.802-1.149 2.703-3.068 2.703-5.758 0-2.689-.654-4.424-1.959-5.209-1.307-.783-3.866-1.175-7.678-1.175l-8.461-.391c-1.723 1.254-2.886 2.351-3.485 3.29-.601.94-.901 2.14-.901 3.603Zm11.046 12.301c-6.268 0-10.642-.851-13.121-2.547-2.483-1.698-3.723-4.791-3.723-9.283 0-2.141.471-3.877 1.412-5.209.939-1.332 2.531-2.834 4.777-4.506-1.463-.99-2.194-2.792-2.194-5.404 0-.887.653-2.533 1.959-4.936l.707-1.252c-4.128-1.882-6.19-5.824-6.19-11.83 0-8.93 4.882-13.396 14.649-13.396 2.508 0 4.829.262 6.972.784l1.175.235 11.594-.314v5.013l-7.442-.157c1.724 1.725 2.586 4.336 2.586 7.835 0 4.909-1.214 8.342-3.643 10.302-2.428 1.957-6.255 2.938-11.476 2.938-1.412 0-2.691-.106-3.839-.314-.94 2.298-1.41 3.786-1.41 4.465 0 1.619.495 2.624 1.488 3.015.991.392 3.995.588 9.01.588 5.013 0 8.616.784 10.809 2.35 2.193 1.568 3.29 4.622 3.29 9.166 0 8.304-5.796 12.457-17.39 12.457ZM530.826 88.108c0-4.804-.771-8.199-2.311-10.184-1.542-1.983-4.047-2.976-7.52-2.976-3.475 0-6.085 1.045-7.835 3.133-1.75 2.09-2.651 5.433-2.702 10.027h20.368Zm2.115 17.001 2.271-.236.158 4.622c-5.954.835-11.047 1.252-15.276 1.252-5.64 0-9.636-1.63-11.987-4.895-2.349-3.263-3.524-8.343-3.524-15.237 0-13.734 5.457-20.603 16.373-20.603 5.274 0 9.217 1.476 11.829 4.426 2.61 2.951 3.915 7.587 3.915 13.905l-.312 4.466h-25.851c0 4.335.783 7.547 2.349 9.635 1.568 2.09 4.296 3.134 8.187 3.134 3.89 0 7.847-.156 11.868-.469ZM545.867 109.964v-39.17h5.797v5.328c4.544-3.134 9.323-5.197 14.336-6.189v5.954c-2.193.419-4.478 1.07-6.854 1.957-2.378.89-4.191 1.674-5.445 2.351l-1.958 1.018v28.751h-5.876ZM230.017 135.086H217.23v6.682h11.662v3.888H217.23v7.68h-4.531v-22.17h17.318v3.92ZM245.245 134.764c-4.949 0-8.161 2.86-8.161 7.454 0 4.563 3.212 7.423 8.193 7.423 4.917 0 8.097-2.86 8.097-7.423 0-4.594-3.18-7.454-8.129-7.454Zm-.032 18.958c-7.905 0-12.756-4.434-12.756-11.471 0-7.036 4.883-11.472 12.788-11.472s12.788 4.436 12.788 11.472c0 7.037-4.915 11.471-12.82 11.471ZM284.862 142.315c0 7.037-3.502 11.407-11.343 11.407-7.839 0-11.085-3.953-11.085-11.407v-11.148h4.531v11.148c0 4.916 2.185 7.326 6.844 7.326 4.434 0 6.619-2.474 6.619-7.326v-11.148h4.434v11.148ZM312.49 153.336h-4.562l-12.949-15.294h-.064v15.294h-4.53v-22.17h4.562l12.949 15.295h.064v-15.295h4.53v22.17ZM327.623 135.086h-4.948v14.266h4.948c6.941 0 9.737-2.636 9.737-7.23 0-4.563-2.667-7.036-9.737-7.036Zm.258 18.25h-9.736v-22.17h9.736c9.704 0 14.138 3.632 14.138 10.924 0 6.973-4.37 11.246-14.138 11.246ZM355.608 135.406h-.064l-3.631 8.676h7.39l-3.695-8.676Zm12.498 17.93h-4.947l-2.57-6.01h-10.026l-2.506 6.01h-4.852l9.992-22.17h4.949l9.96 22.17ZM389.761 135.086h-9.382v18.25h-4.53v-18.25h-9.351v-3.92h23.263v3.92ZM393.487 131.166h4.53v22.17h-4.53v-22.17ZM415.623 134.764c-4.949 0-8.161 2.86-8.161 7.454 0 4.563 3.212 7.423 8.193 7.423 4.917 0 8.097-2.86 8.097-7.423 0-4.594-3.18-7.454-8.129-7.454Zm-.032 18.958c-7.905 0-12.756-4.434-12.756-11.471 0-7.036 4.883-11.472 12.788-11.472s12.788 4.436 12.788 11.472c0 7.037-4.915 11.471-12.82 11.471ZM455.047 153.336h-4.563l-12.949-15.294h-.064v15.294h-4.53v-22.17h4.562l12.949 15.295h.064v-15.295h4.531v22.17Z"/><path fill="#815281" d="M83.971 154.601c-10.574-5.211-19.31-13.333-24.827-23.448-9.348-6.589-16.55-16.091-20.229-27.125a57.188 57.188 0 0 0-2.605 17.011c0 13.639 5.057 25.899 13.333 35.401 2.911 3.218 6.13 6.283 9.655 8.735 8.888 6.283 19.769 9.961 31.57 9.961 6.282 0 12.259-1.072 17.93-3.065-9.962-3.371-18.544-9.501-24.827-17.47Z"/><path fill="#8075B2" d="M133.164 154.294c.153 0 .153 0 0 0-7.509 3.678-15.785 5.671-24.673 5.824-8.889 0-17.164-1.992-24.674-5.517h-.153c6.437 7.969 14.865 14.099 24.827 17.471 9.961-3.525 18.39-9.809 24.673-17.778Z"/><path fill="#A2BDDB" d="M83.971 154.601c7.51 3.524 15.785 5.517 24.673 5.517 8.889 0 17.165-2.146 24.674-5.824-8.735-1.992-17.011-5.057-24.674-9.195a104.223 104.223 0 0 1-24.673 9.502Z"/><path fill="#56B6B4" d="M177.761 103.261c1.839 5.364 2.758 11.035 2.758 17.011 0 13.64-4.751 26.053-13.026 35.555-2.759 3.371-5.977 6.283-9.502 8.888-8.888 6.437-19.769 10.268-31.416 10.268-6.283 0-12.26-1.073-17.93-2.912 9.808-3.525 18.236-9.655 24.52-17.777 10.421-5.211 19.003-13.486 24.52-23.601 9.348-6.896 16.398-16.397 20.076-27.432Z"/><path fill="#2E9B85" d="M157.685 76.136c4.444 7.97 6.896 17.164 7.049 26.972 0 9.962-2.452 19.31-6.896 27.432a55.471 55.471 0 0 0 19.923-27.432c-3.678-10.88-10.881-20.382-20.076-26.972Z"/><path fill="#80D3BD" d="M157.838 130.54c4.444-8.122 6.896-17.47 6.896-27.432 0-9.808-2.605-19.003-7.049-26.972-1.686 9.655-4.751 18.85-9.042 27.279 4.291 8.429 7.509 17.47 9.195 27.125Z"/><path fill="#97E0CF" d="M148.643 103.415c-1.379 2.759-2.912 5.517-4.598 8.122-7.049 11.188-16.397 20.842-27.432 28.352-2.605 1.839-5.363 3.525-8.122 5.057 7.663 4.138 15.938 7.203 24.674 9.195 10.421-5.21 19.003-13.486 24.52-23.601-1.533-9.654-4.751-18.696-9.042-27.125Z"/><path fill="#FF7A7F" d="M58.531 76.75c5.67-10.575 14.406-19.004 24.98-24.214 6.283-7.97 14.712-14.1 24.367-17.47-5.67-1.993-11.647-2.913-17.93-2.913-11.954 0-22.835 3.985-31.723 10.575-3.218 2.298-6.284 5.057-8.889 8.122-8.429 9.655-13.486 22.221-13.333 36.014 0 5.977 1.073 11.647 2.759 17.011 3.678-11.034 10.727-20.536 19.77-27.126Z"/><path fill="#E7666D" d="M58.991 131.153c-4.444-8.122-7.05-17.47-7.05-27.432 0-9.808 2.453-19.003 6.744-27.125-9.195 6.743-16.092 16.245-19.77 27.279 3.678 11.187 10.881 20.688 20.076 27.278Z"/><path fill="#FFA5B1" d="M58.685 76.596c-4.444 8.122-6.743 17.317-6.743 27.125 0 9.962 2.605 19.31 7.203 27.279a101.701 101.701 0 0 1 8.888-27.279c-4.444-8.275-7.662-17.47-9.348-27.125Z"/><path fill="#FFD0D0" d="M100.369 140.042a97.271 97.271 0 0 1-27.739-28.198c-1.685-2.606-3.218-5.364-4.75-8.123A91.939 91.939 0 0 0 58.99 131c5.67 10.115 14.406 18.39 24.827 23.447h.153c8.735-2.145 17.011-5.363 24.52-9.501-2.759-1.379-5.517-3.065-8.122-4.904Z"/><path fill="#68C080" d="M107.878 35.065A53.74 53.74 0 0 1 125.808 32c11.954 0 22.988 3.678 32.03 10.268 3.218 2.299 6.13 5.057 8.888 7.969 8.429 9.501 13.64 22.068 13.793 35.86 0 5.977-.92 11.648-2.605 17.011-3.678-11.034-10.728-20.382-20.076-26.972-5.67-10.42-14.559-18.696-25.287-23.754-6.436-7.969-14.865-13.945-24.673-17.317Z"/><path fill="#FF9752" d="M83.511 52.536c7.356-3.678 15.632-5.67 24.367-5.67 8.735 0 17.011 1.839 24.52 5.363-6.283-7.816-14.865-13.946-24.52-17.164a55.985 55.985 0 0 0-24.367 17.47Z"/><path fill="#FFB884" d="M108.031 61.884c7.51-4.291 15.785-7.51 24.367-9.502-7.356-3.524-15.785-5.517-24.52-5.363-8.735 0-17.01 2.145-24.367 5.67 8.736 1.992 17.011 5.057 24.52 9.195Z"/><path fill="#C4E2A0" d="M108.031 61.884c2.912 1.533 5.671 3.218 8.429 5.057 10.881 7.51 20.229 17.011 27.432 28.199 1.686 2.605 3.218 5.363 4.751 8.275 4.291-8.429 7.356-17.624 9.042-27.279-5.671-10.42-14.559-18.696-25.287-23.753-8.582 1.992-16.704 5.363-24.367 9.501Z"/><path fill="#EEC9A7" d="M68.033 103.875a111.475 111.475 0 0 1 4.597-8.276c7.05-11.187 16.245-20.995 27.126-28.505 2.605-1.838 5.517-3.524 8.275-5.21-7.662-4.138-15.784-7.356-24.52-9.348-10.574 5.21-19.31 13.639-24.826 24.06 1.685 9.655 4.904 18.85 9.348 27.279Z"/><path fill="#FF4141" fill-rule="evenodd" d="M1.491 202.256 588.717 0H591c1.99 0 3.844.581 5.402 1.583L4.598 205.417a10.064 10.064 0 0 1-3.107-3.161Z" clip-rule="evenodd"/></svg>
