<svg xmlns="http://www.w3.org/2000/svg" fill="none" viewBox="0 0 603 207"><rect width="601" height="207" x="2" fill="#3D7B6B" rx="10"/><path fill="#fff" d="M199.257 133.492V74.447h6.571v59.045h-6.571Zm24.575 0h-6.398V90.827h6.312v2.988c4.606-2.56 9.014-3.838 13.224-3.838 5.685 0 9.513 1.537 11.478 4.607 1.964 3.069 2.942 8.531 2.942 16.385v22.523h-6.312v-22.355c0-5.915-.585-9.967-1.751-12.16-1.166-2.19-3.655-3.284-7.467-3.284-1.822 0-3.741.27-5.762.81-2.021.54-3.568 1.069-4.652 1.578l-1.619.768v34.643h.005Zm59.554-37.117h-13.565v20.391c0 4.892.356 8.104 1.069 9.641.712 1.537 2.402 2.306 5.075 2.306l7.594-.514.428 5.288c-3.813.626-6.714.937-8.704.937-4.439 0-7.508-1.079-9.213-3.243-1.706-2.163-2.561-6.286-2.561-12.374V96.365h-6.057v-5.548h6.057v-13.04h6.312v13.055h13.565v5.543Zm35.157 31.829 2.474-.255.173 5.034c-6.485.911-12.033 1.364-16.639 1.364-6.144 0-10.496-1.776-13.057-5.334-2.56-3.553-3.837-9.086-3.837-16.594 0-14.96 5.945-22.442 17.83-22.442 5.747 0 10.038 1.609 12.883 4.82 2.845 3.212 4.266 8.262 4.266 15.143l-.341 4.867h-28.159c0 4.723.855 8.22 2.561 10.495 1.705 2.276 4.677 3.416 8.917 3.416 4.235 0 8.547-.173 12.929-.514Zm-2.306-18.518c0-5.233-.839-8.928-2.519-11.091-1.68-2.164-4.408-3.243-8.19-3.243-3.782 0-6.627 1.14-8.531 3.416-1.909 2.275-2.886 5.914-2.942 10.923h22.182v-.005Zm14.675 23.806V90.827h6.312v5.803c4.947-3.416 10.154-5.66 15.616-6.74v6.485c-2.387.459-4.876 1.166-7.467 2.133-2.591.967-4.566 1.822-5.93 2.56l-2.133 1.11v31.314h-6.398Zm28.326 0V72.228h6.399v61.264h-6.399Zm46.503-5.288 2.474-.255.173 5.034c-6.485.911-12.033 1.364-16.639 1.364-6.144 0-10.496-1.776-13.056-5.334-2.561-3.553-3.838-9.086-3.838-16.594 0-14.96 5.945-22.442 17.83-22.442 5.747 0 10.038 1.609 12.883 4.82 2.846 3.212 4.266 8.262 4.266 15.143l-.341 4.867h-28.159c0 4.723.855 8.22 2.561 10.495 1.705 2.276 4.677 3.416 8.917 3.416s8.547-.173 12.929-.514Zm-2.306-18.518c0-5.233-.839-8.928-2.519-11.091-1.68-2.164-4.408-3.243-8.19-3.243-3.782 0-6.627 1.14-8.531 3.416-1.909 2.275-2.886 5.914-2.942 10.923h22.182v-.005Zm47.44-37.458v61.264h-6.312v-2.901c-4.382 2.504-8.704 3.756-12.969 3.756-2.276 0-4.266-.285-5.971-.855-1.705-.57-3.298-1.593-4.779-3.069-3.07-3.069-4.607-8.745-4.607-17.021 0-8.277 1.379-14.248 4.138-17.917 2.759-3.67 7.325-5.503 13.693-5.503 3.298 0 6.795.372 10.495 1.11V72.228h6.312Zm-22.183 55.803c1.024.397 2.347.595 3.971.595 1.618 0 3.441-.27 5.461-.809 2.021-.54 3.599-1.069 4.734-1.578l1.705-.769V96.543c-3.639-.682-7.024-1.023-10.154-1.023-4.322 0-7.34 1.38-9.045 4.138-1.706 2.759-2.561 7.04-2.561 12.843 0 6.602.993 11.035 2.988 13.31.911 1.084 1.878 1.823 2.901 2.22Zm49.318 25.516c-6.826 0-11.59-.926-14.293-2.774-2.703-1.848-4.051-5.217-4.051-10.109 0-2.331.514-4.225 1.537-5.675 1.023-1.451 2.759-3.085 5.207-4.907-1.593-1.079-2.387-3.044-2.387-5.889 0-.967.712-2.759 2.132-5.376l.769-1.364c-4.495-2.046-6.739-6.342-6.739-12.883 0-9.727 5.319-14.588 15.957-14.588 2.728 0 5.263.285 7.595.855l1.277.255 12.629-.341v5.462l-8.104-.174c1.878 1.879 2.815 4.724 2.815 8.531 0 5.35-1.323 9.086-3.97 11.219-2.647 2.133-6.811 3.202-12.501 3.202-1.538 0-2.932-.112-4.179-.341-1.024 2.504-1.538 4.122-1.538 4.861 0 1.766.54 2.86 1.624 3.283 1.079.427 4.352.641 9.814.641 5.461 0 9.386.855 11.773 2.56 2.387 1.705 3.584 5.034 3.584 9.982-.011 9.045-6.322 13.57-18.951 13.57Zm-12.033-13.397c0 3.013.84 5.105 2.515 6.271 1.679 1.166 4.779 1.751 9.299 1.751s7.763-.626 9.727-1.878c1.965-1.252 2.942-3.344 2.942-6.271 0-2.932-.712-4.821-2.132-5.676-1.42-.855-4.21-1.277-8.363-1.277l-9.213-.428c-1.879 1.364-3.146 2.56-3.797 3.584-.647 1.023-.978 2.331-.978 3.924Zm.601-35.58c0 3.36.753 5.747 2.26 7.167 1.507 1.42 3.996 2.133 7.467 2.133 3.471 0 5.945-.713 7.421-2.133s2.22-3.822 2.22-7.207-.738-5.788-2.22-7.208c-1.481-1.42-3.955-2.133-7.421-2.133-3.471 0-5.96.723-7.467 2.174-1.507 1.445-2.26 3.848-2.26 7.207Zm66.125 23.634 2.474-.255.173 5.034c-6.485.911-12.033 1.364-16.64 1.364-6.143 0-10.495-1.776-13.056-5.334-2.56-3.553-3.838-9.086-3.838-16.594 0-14.96 5.946-22.442 17.831-22.442 5.747 0 10.038 1.609 12.883 4.82 2.845 3.212 4.265 8.262 4.265 15.143l-.341 4.867h-28.158c0 4.723.855 8.22 2.56 10.495 1.706 2.276 4.678 3.416 8.918 3.416 4.24 0 8.546-.173 12.929-.514Zm-2.306-18.518c0-5.233-.84-8.928-2.519-11.091-1.68-2.164-4.408-3.243-8.19-3.243-3.782 0-6.628 1.14-8.531 3.416-1.909 2.275-2.886 5.914-2.942 10.923h22.182v-.005Zm14.675 23.806V90.827h6.312v5.803c4.947-3.416 10.154-5.66 15.616-6.74v6.485c-2.387.459-4.876 1.166-7.467 2.133-2.591.967-4.566 1.822-5.93 2.56l-2.133 1.11v31.314h-6.398Z"/><path fill="#B4EEE0" d="M104.414 147.831c-9.666 0-18.752-2.479-26.647-6.821.306 6.129 12.293 13.392 26.85 13.392 14.558 0 25.868-8.928 26.759-13.57-7.966 4.454-17.164 6.999-26.962 6.999Z"/><path fill="#D3D6E2" d="M77.767 141.01a54.12 54.12 0 0 1-15.051-23.246c-2.988-9.111-3.42-18.436-1.685-27.217-5.288 1.257-8.093 19.083-4.556 29.441 3.538 10.348 16.034 23.282 21.292 21.022Z"/><path fill="#FFC9DD" d="M78.694 69.174a54.97 54.97 0 0 1 25.603-9.997c-4.357-3.812-22.005-.992-29.665 4.805-7.66 5.798-16.69 21.134-13.6 26.565 3.801-8.25 9.731-15.667 17.662-21.373Z"/><path fill="#FFEBB2" d="M104.297 59.177a54.908 54.908 0 0 1 25.964 10.043c7.824 5.63 13.703 12.923 17.505 21.037 3.288-5.523-4.046-20.111-13.774-26.469-9.727-6.357-27.216-8.016-29.695-4.611Z"/><path fill="#C6E4A2" d="M147.771 90.252c1.817 8.882 1.415 18.339-1.613 27.573a54.149 54.149 0 0 1-14.782 23.002c7.513.717 17.948-9.178 21.149-21.165 3.202-11.982-.066-28.769-4.754-29.41Z"/><path fill="#A4BFDD" d="M56.475 119.983c-3.206 4.011.85 20.884 14.436 30.439 13.585 9.554 30.729 7.472 33.706 3.975a55.413 55.413 0 0 1-26.85-13.387 54.963 54.963 0 0 1-21.291-21.027Z"/><path fill="#99E2D1" d="M152.525 119.663a54.88 54.88 0 0 1-21.149 21.164 55.366 55.366 0 0 1-26.759 13.57c3.589 4.327 23.109 2.138 33.676-4.194s16.284-25.043 14.232-30.54Z"/><path fill="#FFA7B3" d="M61.031 90.542c1.96-9.92 6.684-19.139 13.6-26.565-7.11-2.601-20.578 9.187-24.757 23.007-4.18 13.82-.82 29.634 6.602 32.994a54.222 54.222 0 0 1 4.555-29.436Z"/><path fill="#FCA" d="M104.297 59.177a55.66 55.66 0 0 1 29.695 4.607c3.039-5.701-16.252-16.222-29.731-16.222-13.478 0-29.4 9.218-29.63 16.415a55.58 55.58 0 0 1 29.666-4.8Z"/><path fill="#E9D59E" d="M152.525 119.662c6.419-1.237 11.193-17.031 6.383-33.03-4.815-15.997-19.709-24.493-24.911-22.849a54.498 54.498 0 0 1 13.779 26.469 54.254 54.254 0 0 1 4.749 29.41Z"/><path fill="#A499D7" d="M70.91 150.422a54.565 54.565 0 0 1-4.361-5.238c-5.645-7.701-8.959-16.38-10.068-25.201a53.768 53.768 0 0 1-6.979-26.565c0-2.173.132-4.322.382-6.429-5.151 1.42-11.366 21.862-5.727 37.005 5.635 15.148 21.974 27.278 26.754 26.428Z"/><path fill="#56B8B6" d="M138.293 150.203a54.751 54.751 0 0 1-6.377 2.494 55.14 55.14 0 0 1-27.298 1.7c-8.918 1.762-18.396 1.349-27.655-1.634a55.781 55.781 0 0 1-6.052-2.346c2.418 7.365 14.69 16.828 33.752 16.828 19.063.005 30.103-9.274 33.63-17.042Z"/><path fill="#68C280" d="M158.903 86.633c.28 2.22.423 4.484.423 6.78a53.75 53.75 0 0 1-6.806 26.249c-1.064 8.949-4.388 17.755-10.114 25.558a55.346 55.346 0 0 1-4.123 4.978c8.826.57 21.832-9.081 26.586-26.606 4.754-17.525-1.176-34.806-5.966-36.96Z"/><path fill="#FF7A7F" d="M49.879 86.984a54.378 54.378 0 0 1 3.68-5.731 54.58 54.58 0 0 1 21.073-17.276C80.8 57.36 88.71 52.173 97.975 49.19a56.536 56.536 0 0 1 6.286-1.628c-7.452-3.69-25.659-1.502-37.29 6.041-11.626 7.544-19.23 26.265-17.092 33.381Z"/><path fill="#FFBA86" d="M104.261 47.567c2.219.422 4.439.987 6.638 1.695 9.136 2.942 16.96 8.032 23.093 14.522a54.513 54.513 0 0 1 21.404 17.428 55.95 55.95 0 0 1 3.507 5.421c3.36-6.347-6.836-25.435-17.321-33.274-10.486-7.838-29.508-9.29-37.321-5.792Z"/><path fill="#835283" d="M49.879 86.984c1.557-13.127 7.828-24.819 17.097-33.38-11.585 6.464-20.843 17.082-25.272 30.59-4.474 13.637-3.217 27.757 2.448 39.795-2.499-12.308-.722-25.44 5.727-37.005Z"/><path fill="#8075B4" d="M70.91 150.422a54.523 54.523 0 0 1-26.752-26.428c2.626 12.908 9.95 24.916 21.55 33.269 11.703 8.424 25.645 11.605 38.955 9.986-12.593-1.445-24.646-7.182-33.752-16.827Z"/><path fill="#2E9D87" d="M138.293 150.203c-9.045 9.712-21.057 15.52-33.63 17.047 13.199 1.522 26.993-1.68 38.593-10.028 11.702-8.429 19.063-20.579 21.623-33.625a54.555 54.555 0 0 1-26.586 26.606Z"/><path fill="#549558" d="M158.903 86.633c6.526 11.529 8.389 24.641 5.971 36.964 5.533-11.972 6.729-25.954 2.295-39.463-4.469-13.636-13.855-24.326-25.587-30.77 9.33 8.5 15.677 20.162 17.321 33.269Z"/><path fill="#FF9952" d="M104.261 47.567c13.082-2.586 26.245-.29 37.321 5.797C131.804 44.446 118.747 39 104.414 39c-14.466 0-27.63 5.548-37.438 14.608 11.04-6.164 24.194-8.546 37.285-6.041Z"/><path fill="#FF4141" fill-rule="evenodd" d="M.491 202.256 587.717 0H590c1.99 0 3.844.581 5.402 1.583L3.598 205.417a10.064 10.064 0 0 1-3.107-3.161Z" clip-rule="evenodd"/></svg>
