<svg xmlns="http://www.w3.org/2000/svg" fill="none" viewBox="0 0 603 207"><rect width="601" height="207" x="1.509" fill="#19477C" rx="10"/><path fill="#825282" d="m257.647 132.655-.012-.069c-6.244-9.173-9.504-20.093-9.355-31.17l-.004-.002c-4.558-9.917-5.959-21.175-3.74-32.112a52.239 52.239 0 0 0-10.338 12.873 51.884 51.884 0 0 0-5.895 35.679 52.247 52.247 0 0 0 3.791 11.811 51.509 51.509 0 0 0 21.369 23.33 51.453 51.453 0 0 0 16.288 5.944 52.08 52.08 0 0 1-12.114-26.284h.01Z"/><path fill="#8075B3" d="M298.57 155.967s.033-.012.05-.023c-.024-.003-.054-.005-.078-.009a53.516 53.516 0 0 1-23.112-6.948 53.388 53.388 0 0 1-17.737-16.331c-.018-.031-.037-.052-.055-.083a.588.588 0 0 1 .012.069c1.46 9.632 5.602 18.792 12.116 26.28 9.768 1.798 19.766.699 28.806-2.959l-.002.004Z"/><path fill="#A3BEDC" d="M257.696 132.668c4.456 6.523 10.423 12.155 17.737 16.331 7.33 4.176 15.221 6.441 23.112 6.948a92.564 92.564 0 0 1-15.966-19.414 93.012 93.012 0 0 1-24.879-3.862l-.004-.003Z"/><path fill="#56B7B5" d="M359.752 134.974a52.026 52.026 0 0 1-5.81 15.446 51.851 51.851 0 0 1-27.707 23.246 51.973 51.973 0 0 1-12.087 2.747 51.48 51.48 0 0 1-30.963-6.506 51.552 51.552 0 0 1-13.413-10.986c9.765 1.785 19.767.689 28.805-2.966.017-.011.033-.012.05-.023 11.073.701 22.134-2.059 31.588-7.831l.004.002a52.042 52.042 0 0 0 29.534-13.139l-.001.01Z"/><path fill="#2E9C86" d="M356.101 103.069a53.982 53.982 0 0 1-7.11 25.667c-4.691 8.232-11.22 14.767-18.768 19.369-.002.004-.006.002-.008.006l.003.002a52.114 52.114 0 0 0 29.537-13.142c2.206-10.861.839-22.043-3.652-31.906l-.002.004Z"/><path fill="#80D4BE" d="M330.221 148.109c7.545-4.614 14.069-11.142 18.768-19.37 4.632-8.121 6.931-16.938 7.107-25.662a93.258 93.258 0 0 1-20.538 18.208 93.38 93.38 0 0 1-5.34 26.828l.003-.004Z"/><path fill="#98E1D0" d="M335.559 121.275a94.181 94.181 0 0 1-43.926 14.969 93.427 93.427 0 0 1-9.064.278 92.436 92.436 0 0 0 15.967 19.415c.024.003.054.005.078.009 11.073.7 22.134-2.06 31.588-7.832.003-.004.006-.002.009-.005a92.923 92.923 0 0 0 5.344-26.836l.004.002Z"/><path fill="#FF7A7F" d="M273.87 56.188s.048-.03.067-.044c9.579-5.917 20.83-8.728 32.078-7.963.006-.002.018.005.024.004 8.954-3.553 18.829-4.61 28.484-2.84a51.686 51.686 0 0 0-13.413-10.987 51.39 51.39 0 0 0-31.318-6.463 52.493 52.493 0 0 0-11.2 2.525 51.897 51.897 0 0 0-28.241 23.43 51.987 51.987 0 0 0-5.81 15.445c8.225-7.433 18.547-11.949 29.325-13.11l.004.003Z"/><path fill="#E8666D" d="m248.286 101.404.004.002s-.004-.002-.001-.006c.125-8.841 2.419-17.785 7.112-26.021 4.633-8.122 11.047-14.593 18.471-19.195-10.778 1.16-21.104 5.684-29.328 13.113a52.097 52.097 0 0 0 3.742 32.107Z"/><path fill="#FFA6B2" d="M273.931 56.181s.009-.025.014-.033c-.019.015-.048.03-.067.044-7.428 4.6-13.843 11.071-18.479 19.19-4.691 8.233-6.987 17.18-7.112 26.022a93.342 93.342 0 0 1 20.419-18.297 93.258 93.258 0 0 1 5.222-26.922l.003-.004Z"/><path fill="#FFD1D1" d="M278.194 128.572a94.036 94.036 0 0 1-9.482-45.467 93.364 93.364 0 0 0-20.419 18.298c-.003.003.001.006-.001.01-.149 11.076 3.111 21.997 9.355 31.17.018.031.037.053.055.084a92.644 92.644 0 0 0 24.881 3.858 91.355 91.355 0 0 1-4.389-7.953Z"/><path fill="#68C180" d="M334.529 45.343a51.728 51.728 0 0 1 16.288 5.944 51.465 51.465 0 0 1 21.557 23.739 51.848 51.848 0 0 1 3.496 10.844c2.449 11.94.738 24.799-5.782 36.236a52.052 52.052 0 0 1-10.338 12.872 52.033 52.033 0 0 0-3.652-31.905s-.004-.002-.001-.006c.228-11.285-3.086-22.427-9.49-31.745-.001-.006-.013-.012-.014-.019-1.503-9.522-5.629-18.559-12.064-25.96Z"/><path fill="#FF9852" d="M306.045 48.183a53.515 53.515 0 0 1 22.909 6.934 53.445 53.445 0 0 1 17.637 16.18c-1.501-9.516-5.629-18.549-12.068-25.953-9.647-1.764-19.527-.71-28.476 2.845l-.002-.006Z"/><path fill="#FFB985" d="M321.855 67.574a92.741 92.741 0 0 1 24.752 3.748c-.001-.006-.013-.012-.014-.019a53.509 53.509 0 0 0-17.638-16.18c-7.264-4.137-15.089-6.4-22.908-6.934-.007.002-.018-.005-.024-.004.004.003.007.005.005.009a92.467 92.467 0 0 1 15.823 19.378l.004.002Z"/><path fill="#C5E3A1" d="M321.855 67.574a94.04 94.04 0 0 1 13.703 53.711 93.285 93.285 0 0 0 20.538-18.208l-.004-.003c.23-11.288-3.081-22.434-9.487-31.748-.004-.002-.008-.004-.01 0a92.163 92.163 0 0 0-24.74-3.752Z"/><path fill="#EFCAA8" d="M268.71 83.099a94.222 94.222 0 0 1 43.795-15.2 92.58 92.58 0 0 1 9.348-.331 92.793 92.793 0 0 0-15.824-19.384l-.006-.008a54.242 54.242 0 0 0-32.08 7.966c-.004.008-.009.025-.014.033A93.616 93.616 0 0 0 268.71 83.1Z"/><path fill="#fff" d="M326.337 75.787a94.19 94.19 0 0 0-4.48-8.217 94.188 94.188 0 0 0-45.409 10.938 93.949 93.949 0 0 0-7.742 4.589 94.112 94.112 0 0 0 .031 8.937 94.132 94.132 0 0 0 13.832 44.489c3.03.053 6.057-.04 9.064-.279a94.241 94.241 0 0 0 36.191-10.438 94.3 94.3 0 0 0 7.735-4.531c.151-3.03.152-6.049.01-9.063a94.314 94.314 0 0 0-9.232-36.425Z"/><path fill="#FF4141" fill-rule="evenodd" d="M0 202.256 587.226 0h2.283a9.95 9.95 0 0 1 5.402 1.583L3.107 205.417A10.064 10.064 0 0 1 0 202.256Z" clip-rule="evenodd"/></svg>