<svg xmlns="http://www.w3.org/2000/svg" fill="none" viewBox="0 0 603 207"><rect width="601" height="207" x="1.509" fill="#19477C" rx="10"/><path fill="#FFA6B2" fill-rule="evenodd" d="M342.613 105.619c-2.617-24.599-18.163-45.339-39.712-55.293h-20.117l-4.305 26.38c18.289 4.58 28.151 14.694 32.437 32.855l31.692-3.942h.005Z" clip-rule="evenodd"/><path fill="#B3EDDF" fill-rule="evenodd" d="m242.255 174.276 6.699-38.437c-2.095-1.911-10.714 7.647-12.431 5.393h-16.528v14.718a69.289 69.289 0 0 0 22.26 18.326Z" clip-rule="evenodd"/><path fill="#FFB985" fill-rule="evenodd" d="m342.657 106.093-35.901-1.785c.32 2.206 0 9.021 0 11.309 0 6.926.552 10.282-2.147 16.202l11.918 9.413h20.451c3.87-8.614 6.022-18.172 6.022-28.227 0-2.331-.116-4.639-.343-6.912Z" clip-rule="evenodd"/><path fill="#FFCBA9" fill-rule="evenodd" d="M325.301 98.03c-6.346 0-11.488 5.147-11.488 11.487v1.621c0 6.345 5.147 11.487 11.488 11.487 6.342 0 11.488-5.146 11.488-11.487v-1.621c0-6.345-5.141-11.487-11.488-11.487Z" clip-rule="evenodd"/><path fill="#68C180" fill-rule="evenodd" d="M339.836 133.735C331.033 161.71 304.889 182 274.005 182c-2.815 0-5.592-.169-8.32-.498l3.995-32.928c2.646.464 7.793 1.185 10.361.125 13.607-5.615 15.106-7.753 26.091-18.35l33.7 3.386h.004Z" clip-rule="evenodd"/><path fill="#2E9C86" fill-rule="evenodd" d="M229.524 130.925a37.85 37.85 0 0 1 1.833 1.794 53.63 53.63 0 0 1-.798-1.794h-1.04.005Zm31.943 27.999a56.63 56.63 0 0 1-4.043 21.074 68.593 68.593 0 0 1-18.047-7.299c-.678-.396.764-4.764.933-5.47 2.254-9.325 4.963-18.863 5.505-28.478.063-1.127.367-3.71-.479-4.653 5.925 6.578 12.31 9.46 21.099 11.859 0 .281-4.968 12.687-4.968 12.967Z" clip-rule="evenodd"/><path fill="#98E1D0" fill-rule="evenodd" d="M209.74 138.184h15.643V98.122h-18.777A69.134 69.134 0 0 0 205 113c0 8.89 1.678 17.383 4.74 25.184Z" clip-rule="evenodd"/><path fill="#56B7B5" fill-rule="evenodd" d="M209.107 136.511c9.156-6.689 15.106-17.509 15.106-29.716 0-10.312-4.247-19.637-11.082-26.317a69.268 69.268 0 0 1 16.422-20.25c5.427 4.913 21.283 16.405 24.731 22.935-9.833 8.594-16.697 17.944-15.294 31.96 1.078 10.786 1.156 12.087 7.347 20.725-4.077 8.363-17.694 18.902-23.856 23.057a68.918 68.918 0 0 1-13.369-22.389l-.005-.005Z" clip-rule="evenodd"/><path fill="#8075B3" fill-rule="evenodd" d="M276.225 44.034c-.74-.024-1.48-.034-2.225-.034-25.612 0-47.969 13.954-59.873 34.674h27.591c8.392-7.893 19.691-12.73 32.122-12.73.803 0 1.601.02 2.39.058V44.029l-.005.005Z" clip-rule="evenodd"/><path fill="#549458" fill-rule="evenodd" d="M268.694 181.797c.072-8 6.728-27.792 10.346-34.345-.213 0-2.143 2.481-2.356 2.481-5.025 0-9.62-.397-14.162-1.862-2.966 6.679-7.861 23.39-8.243 31.07a69.146 69.146 0 0 0 14.415 2.661v-.005Zm72.859-54.597s-.009-.009-.019-.014c-.019-.01-.043-.019-.068-.029-.043-.019-.087-.044-.135-.063-.092-.044-.184-.082-.276-.126-.193-.087-.387-.169-.585-.256-.208-.087-.416-.174-.629-.256l-.667-.262c-.233-.092-.47-.179-.707-.266a60.93 60.93 0 0 0-.74-.266c-.246-.087-.517-.183-.774-.271-.256-.087-.536-.183-.802-.27-.266-.087-.557-.184-.832-.271-.276-.087-.571-.184-.861-.276-.291-.092-.591-.184-.886-.276a47.689 47.689 0 0 0-.904-.27c-.3-.088-.614-.184-.924-.271-.31-.087-.629-.179-.943-.271-.315-.092-.639-.179-.958-.266-.319-.087-.643-.179-.967-.266l-.977-.261a56.857 56.857 0 0 0-.987-.257c-.329-.082-.663-.169-.992-.251l-.991-.247a69.25 69.25 0 0 0-.997-.242c-.334-.077-.662-.159-.991-.237-.329-.077-.658-.155-.987-.227-.329-.073-.653-.15-.982-.223-.329-.072-.648-.145-.972-.212l-.963-.204c-.324-.067-.629-.13-.948-.193-.319-.063-.619-.126-.929-.189-.309-.062-.609-.116-.914-.174a83.068 83.068 0 0 0-.89-.164c-.295-.053-.58-.102-.87-.155a30.127 30.127 0 0 0-.842-.14c-.281-.044-.542-.087-.813-.131-.271-.043-.522-.077-.783-.116a23.734 23.734 0 0 0-.75-.101c-.247-.029-.479-.063-.716-.088-.227-.024-.455-.053-.682-.072-.213-.019-.426-.044-.638-.058-.087-.005-.175-.015-.262-.019-.928 5.112-1.954 10.742-4.392 15.129 2.559-.02 5.132.57 7.662.938 2.811.406 5.611.895 8.392 1.456a156.819 156.819 0 0 1 16.519 4.295c.169.053 1.228-2.82 1.335-3.091.706-1.741 1.253-3.535 1.761-5.34.058 0 .309-1.107.343-1.238.116-.44.232-.875.343-1.315.116-.465.208-.934.315-1.403.009-.092.038-.184.063-.271.019-.097.043-.188.067-.285.044-.184.092-.368.136-.556.009-.034.024-.068.009-.092v-.02Z" clip-rule="evenodd"/><path fill="#FF9852" fill-rule="evenodd" d="M342.492 104.57c-2.278-6.786-8.479-11.86-16.068-12.334-7.145-.445-13.907 3.483-17.22 9.311 1.093 5.572 1.828 11.206 1.461 17.141-.044.706-.237 1.228-.3 1.93 3.062 4.319 8.116 7.448 13.809 7.806 9.036.561 16.935-5.591 18.826-14.162-.01-3.264-.184-6.5-.503-9.692h-.005Zm-5.862 6.466c-.387 6.259-5.776 11.013-12.035 10.627-6.259-.387-11.014-5.775-10.622-12.034.387-6.259 5.776-11.013 12.035-10.622 6.259.387 11.014 5.776 10.627 12.034l-.005-.005Z" clip-rule="evenodd"/><path fill="#825282" fill-rule="evenodd" d="M214.621 77.833c23.59-3.734 44.297-16.13 58.76-33.828H274a68.854 68.854 0 0 1 26.874 5.427c-4.247 6.534-13.8 22.2-19.193 27.777-3.99-1.103-6.878.063-11.13.957-19.101 4.024-20.223 10.486-30.086 23.594-7.396 1.813-27.063 2.166-34.923 2.544a68.559 68.559 0 0 1 9.079-26.471Z" clip-rule="evenodd"/><path fill="#FF7A7F" fill-rule="evenodd" d="M337.307 85.494c-.522.014-.977.02-1.504.02-25.622 0-47.094-17.292-53.203-41.006 26.106 3.245 45.812 20.503 54.707 40.986Z" clip-rule="evenodd"/><path fill="#fff" d="M274.334 150.01c20.308 0 36.771-16.462 36.771-36.768 0-20.307-16.463-36.769-36.771-36.769s-36.771 16.462-36.771 36.769c0 20.306 16.463 36.768 36.771 36.768Z"/><path fill="#825282" d="m333.35 108.817-.032-.038a38.332 38.332 0 0 1-16.759-15.79h-.003a36.89 36.89 0 0 1-13.651-18.353 36.935 36.935 0 0 0-1.781 11.545 36.71 36.71 0 0 0 9.01 23.947 36.924 36.924 0 0 0 6.501 5.896 36.445 36.445 0 0 0 21.346 6.735 36.419 36.419 0 0 0 12.083-2.119 36.86 36.86 0 0 1-16.721-11.82l.007-.003Z"/><path fill="#8075B3" d="M366.671 108.623s.016-.019.022-.031l-.05.022a37.88 37.88 0 0 1-16.62 3.919 37.782 37.782 0 0 1-16.645-3.732c-.022-.013-.041-.019-.063-.032a.345.345 0 0 1 .031.038c4.303 5.386 10.081 9.533 16.721 11.817 6.622-2.354 12.359-6.564 16.604-12.004v.003Z"/><path fill="#A3BEDC" d="M333.384 108.807a37.892 37.892 0 0 0 16.645 3.732 37.865 37.865 0 0 0 16.62-3.919 65.525 65.525 0 0 1-16.651-6.247 65.799 65.799 0 0 1-16.611 6.434h-.003Z"/><path fill="#56B7B5" d="M396.733 74.117a36.835 36.835 0 0 1 1.904 11.519 36.69 36.69 0 0 1-8.754 24.045 36.777 36.777 0 0 1-6.434 5.96 36.424 36.424 0 0 1-21.273 6.966 36.473 36.473 0 0 1-12.105-1.986 36.779 36.779 0 0 0 16.6-12.007c.006-.013.016-.019.022-.032a38.324 38.324 0 0 0 16.585-15.973h.003A36.824 36.824 0 0 0 396.73 74.11l.003.006Z"/><path fill="#2E9C86" d="M383.208 55.86a38.188 38.188 0 0 1 4.724 18.241 38.07 38.07 0 0 1-4.648 18.508c0 .003-.003.003-.003.006h.003a36.873 36.873 0 0 0 13.449-18.501 36.834 36.834 0 0 0-13.525-18.258v.003Z"/><path fill="#80D4BE" d="M383.284 92.612a38.22 38.22 0 0 0 4.648-18.508 38.123 38.123 0 0 0-4.724-18.238 65.976 65.976 0 0 1-6.143 18.422 66.037 66.037 0 0 1 6.219 18.327v-.003Z"/><path fill="#98E1D0" d="M377.062 74.282a66.626 66.626 0 0 1-21.619 24.71 66.274 66.274 0 0 1-5.455 3.378 65.427 65.427 0 0 0 16.651 6.247l.051-.022a38.325 38.325 0 0 0 16.585-15.974c0-.003.003-.003.003-.006a65.724 65.724 0 0 0-6.219-18.333h.003Z"/><path fill="#FF7A7F" d="M316.239 56.224s.019-.035.025-.051a38.317 38.317 0 0 1 16.838-16.227c.004-.003.013-.003.016-.006 4.23-5.345 9.907-9.485 16.449-11.817a36.577 36.577 0 0 0-12.105-1.986 36.361 36.361 0 0 0-21.477 7.118 37.113 37.113 0 0 0-5.968 5.51A36.72 36.72 0 0 0 301 63.11a36.834 36.834 0 0 0 1.904 11.52 36.855 36.855 0 0 1 13.332-18.407h.003Z"/><path fill="#E8666D" d="M316.559 92.98h.003s-.003 0-.003-.004a38.183 38.183 0 0 1-4.847-18.46 38.167 38.167 0 0 1 4.527-18.295 36.875 36.875 0 0 0-13.331 18.41 36.856 36.856 0 0 0 13.651 18.349Z"/><path fill="#FFA6B2" d="m316.274 56.198-.004-.025c-.006.016-.019.035-.025.05a38.17 38.17 0 0 0-4.533 18.296 38.192 38.192 0 0 0 4.847 18.46 66.039 66.039 0 0 1 6.038-18.434 65.934 65.934 0 0 1-6.323-18.343v-.004Z"/><path fill="#FFD1D1" d="M344.495 99.046A66.546 66.546 0 0 1 322.6 74.541a66.104 66.104 0 0 0-6.038 18.435c0 .003.003.003.003.007a38.33 38.33 0 0 0 16.759 15.789c.022.013.041.019.064.032a65.553 65.553 0 0 0 16.61-6.438 64.718 64.718 0 0 1-5.503-3.32Z"/><path fill="#68C180" d="M349.57 28.12A36.598 36.598 0 0 1 361.653 26a36.418 36.418 0 0 1 21.606 6.92 36.71 36.71 0 0 1 5.978 5.407 36.708 36.708 0 0 1 9.276 24.249 36.834 36.834 0 0 1-1.78 11.544 36.826 36.826 0 0 0-13.525-18.257s-.003 0-.003-.004a38.342 38.342 0 0 0-17.044-16.093c-.003-.003-.013-.003-.016-.007A36.72 36.72 0 0 0 349.57 28.12Z"/><path fill="#FF9852" d="M333.121 39.937a37.864 37.864 0 0 1 16.49-3.856 37.812 37.812 0 0 1 16.531 3.675 36.7 36.7 0 0 0-16.575-11.633 36.725 36.725 0 0 0-16.442 11.817l-.004-.003Z"/><path fill="#FFB985" d="M349.668 46.225a65.614 65.614 0 0 1 16.487-6.456c.003 0 .006 0 .006-.003-.003-.003-.013-.003-.016-.007a37.855 37.855 0 0 0-16.531-3.675 37.9 37.9 0 0 0-16.49 3.856c-.003.003-.012.003-.015.006a65.418 65.418 0 0 1 16.556 6.279h.003Z"/><path fill="#C5E3A1" d="M349.668 46.225a66.556 66.556 0 0 1 27.398 28.063 66.005 66.005 0 0 0 6.142-18.422h-.003a38.314 38.314 0 0 0-17.044-16.097c-.003 0-.006 0-.006.003a65.202 65.202 0 0 0-16.487 6.453Z"/><path fill="#EFCAA8" d="M322.597 74.538a66.66 66.66 0 0 1 27.068-28.316 65.638 65.638 0 0 0-16.553-6.279l-.006-.003a38.383 38.383 0 0 0-16.839 16.23l.004.025a66.204 66.204 0 0 0 6.326 18.343Z"/><path fill="#fff" d="M355.32 49.672a66.657 66.657 0 0 0-5.652-3.45 66.62 66.62 0 0 0-27.074 28.316 66.581 66.581 0 0 0 27.394 27.832 66.215 66.215 0 0 0 5.456-3.377 66.676 66.676 0 0 0 21.618-24.711 66.026 66.026 0 0 0-3.199-5.557 66.746 66.746 0 0 0-18.543-19.053Z"/><path fill="#FF4141" fill-rule="evenodd" d="M0 202.256 587.226 0h2.283a9.95 9.95 0 0 1 5.402 1.583L3.107 205.417A10.064 10.064 0 0 1 0 202.256Z" clip-rule="evenodd"/></svg>