<svg xmlns="http://www.w3.org/2000/svg" fill="none" viewBox="0 0 603 207"><rect width="601" height="207" x="1.509" fill="#19477C" rx="10"/><path fill="#825282" d="M227.723 153.053s-.032-.036-.045-.054a54.182 54.182 0 0 1-23.687-22.317h-.005c-8.906-6.309-15.748-15.359-19.294-25.939a52.248 52.248 0 0 0-2.517 16.316 51.885 51.885 0 0 0 12.735 33.847 52.206 52.206 0 0 0 9.188 8.333 51.512 51.512 0 0 0 30.171 9.52 51.44 51.44 0 0 0 17.078-2.996 52.084 52.084 0 0 1-23.633-16.706l.009-.004Z"/><path fill="#8075B3" d="M274.819 152.78s.023-.027.031-.045l-.071.031a53.52 53.52 0 0 1-23.49 5.539 53.386 53.386 0 0 1-23.526-5.275c-.031-.018-.058-.027-.09-.045a.429.429 0 0 1 .045.054c6.081 7.612 14.248 13.474 23.633 16.702 9.359-3.327 17.468-9.278 23.468-16.966v.005Z"/><path fill="#A3BEDC" d="M227.772 153.039c7.119 3.421 15.103 5.315 23.526 5.275 8.436-.049 16.401-2.033 23.49-5.539a92.595 92.595 0 0 1-23.535-8.83 92.969 92.969 0 0 1-23.477 9.094h-.004Z"/><path fill="#56B7B5" d="M317.308 104.008a52.044 52.044 0 0 1 2.691 16.281 51.851 51.851 0 0 1-12.372 33.986 52.006 52.006 0 0 1-9.094 8.423 51.491 51.491 0 0 1-30.068 9.846 51.523 51.523 0 0 1-17.109-2.808c9.349-3.335 17.463-9.286 23.463-16.97.009-.018.023-.027.031-.045 9.941-4.93 18.14-12.851 23.441-22.576h.005a52.052 52.052 0 0 0 19.008-26.146l.004.009Z"/><path fill="#2E9C86" d="M298.193 78.203a53.978 53.978 0 0 1 6.676 25.783c.054 9.475-2.333 18.399-6.569 26.159 0 .004-.004.004-.004.009h.004a52.116 52.116 0 0 0 19.008-26.15c-3.519-10.51-10.294-19.51-19.115-25.805v.004Z"/><path fill="#80D4BE" d="M298.3 130.149c4.227-7.769 6.614-16.684 6.569-26.159-.049-9.35-2.467-18.134-6.676-25.778a93.23 93.23 0 0 1-8.683 26.038 93.355 93.355 0 0 1 8.79 25.904v-.005Z"/><path fill="#98E1D0" d="M289.506 104.241a94.18 94.18 0 0 1-30.556 34.926 93.452 93.452 0 0 1-7.71 4.773 92.377 92.377 0 0 0 23.534 8.83c.023-.008.05-.022.072-.031 9.94-4.93 18.139-12.851 23.441-22.576 0-.005.004-.005.004-.009a92.937 92.937 0 0 0-8.789-25.913h.004Z"/><path fill="#FF7A7F" d="M203.538 78.718s.027-.05.036-.072c5.338-9.913 13.675-17.973 23.799-22.934.005-.005.018-.005.023-.01 5.977-7.553 14.001-13.405 23.248-16.701a51.687 51.687 0 0 0-17.109-2.808 51.391 51.391 0 0 0-30.355 10.062 52.535 52.535 0 0 0-8.436 7.786 51.9 51.9 0 0 0-12.743 34.412 52.004 52.004 0 0 0 2.691 16.281c3.407-10.55 10.088-19.622 18.842-26.016h.004Z"/><path fill="#E8666D" d="M203.991 130.668h.004s-.004 0-.004-.004c-4.312-7.72-6.797-16.612-6.851-26.092-.049-9.35 2.27-18.161 6.398-25.858-8.753 6.394-15.434 15.475-18.842 26.02a52.097 52.097 0 0 0 19.295 25.934Z"/><path fill="#FFA6B2" d="M203.588 78.682s-.005-.027-.005-.035c-.009.022-.027.049-.036.071-4.133 7.697-6.452 16.51-6.407 25.859.054 9.475 2.539 18.372 6.851 26.091a93.334 93.334 0 0 1 8.534-26.055 93.238 93.238 0 0 1-8.937-25.926v-.005Z"/><path fill="#FFD1D1" d="M243.475 139.243a94.06 94.06 0 0 1-30.945-34.635 93.385 93.385 0 0 0-8.535 26.056c0 .004.005.004.005.009a54.176 54.176 0 0 0 23.687 22.317c.031.018.058.027.089.045a92.68 92.68 0 0 0 23.477-9.099 91.172 91.172 0 0 1-7.778-4.693Z"/><path fill="#68C180" d="M250.648 38.996a51.736 51.736 0 0 1 17.078-2.995 51.471 51.471 0 0 1 30.538 9.78 51.88 51.88 0 0 1 8.45 7.643c8.091 9.116 13.039 21.107 13.111 34.272a52.06 52.06 0 0 1-2.517 16.317 52.036 52.036 0 0 0-19.115-25.805s-.005 0-.005-.005c-5.445-9.887-13.885-17.88-24.09-22.747-.004-.004-.018-.004-.022-.009-6.063-7.495-14.154-13.258-23.428-16.45Z"/><path fill="#FF9852" d="M227.4 55.698a53.516 53.516 0 0 1 23.307-5.45 53.439 53.439 0 0 1 23.364 5.195c-6.058-7.491-14.149-13.25-23.427-16.442-9.238 3.295-17.266 9.148-23.239 16.702l-.005-.005Z"/><path fill="#FFB985" d="M250.787 64.586a92.765 92.765 0 0 1 23.302-9.125c.005 0 .009 0 .009-.005-.004-.004-.018-.004-.022-.009a53.506 53.506 0 0 0-23.365-5.194c-8.36.05-16.267 2.002-23.306 5.45-.005.004-.018.004-.023.009.005 0 .009 0 .009.004a92.441 92.441 0 0 1 23.392 8.87h.004Z"/><path fill="#C5E3A1" d="M250.787 64.586a94.055 94.055 0 0 1 38.724 39.664 93.326 93.326 0 0 0 8.682-26.038h-.005c-5.445-9.891-13.885-17.888-24.09-22.751-.004 0-.009 0-.009.004a92.173 92.173 0 0 0-23.302 9.121Z"/><path fill="#EFCAA8" d="M212.525 104.604a94.22 94.22 0 0 1 30.328-35.06 92.49 92.49 0 0 1 7.93-4.962 92.763 92.763 0 0 0-23.396-8.875l-.009-.004a54.241 54.241 0 0 0-23.799 22.939l.004.036a93.64 93.64 0 0 0 8.942 25.926Z"/><path fill="#fff" d="M258.775 69.458a94.007 94.007 0 0 0-7.988-4.876 94.191 94.191 0 0 0-33.856 32.177 94.104 94.104 0 0 0-4.41 7.845 93.855 93.855 0 0 0 4.495 7.724 94.125 94.125 0 0 0 26.45 26.911 96.19 96.19 0 0 0 7.773 4.701 93.302 93.302 0 0 0 7.711-4.773 94.231 94.231 0 0 0 26.123-27.135 94.484 94.484 0 0 0 4.433-7.791 93.303 93.303 0 0 0-4.523-7.854 94.296 94.296 0 0 0-26.208-26.929ZM388.697 121.043c3.193-9.738 1.917-20.633 0-29.997-4.008-8.554-9.037-17.581-17.29-23.52-8.362-6.022-18.975-8.162-28.553-9.256-9.451 1.14-19.726 2.747-27.975 8.686-8.358 6.017-13.641 15.7-17.649 24.39-1.827 9.26-3.152 20.091 0 29.697 3.192 9.738 10.539 17.057 17.649 23.52 8.321 4.582 17.741 9.019 27.938 9.019 10.198 0 20.191-4.509 28.59-9.205 6.973-6.432 14.138-13.724 17.29-23.334Z"/><path fill="#B4EEE0" d="M342.977 151.755c-10.193 0-19.772-2.614-28.098-7.192.324 6.463 12.963 14.12 28.312 14.12 15.349 0 27.278-9.415 28.216-14.311-8.399 4.696-18.1 7.379-28.43 7.379"/><path fill="#D3D6E2" d="M314.879 144.563a57.112 57.112 0 0 1-15.873-24.513c-3.152-9.606-3.607-19.439-1.776-28.699-5.575 1.326-8.536 20.123-4.806 31.045 3.731 10.913 16.907 24.55 22.45 22.167"/><path fill="#FFC9DD" d="M315.858 68.814a57.935 57.935 0 0 1 26.996-10.54c-4.596-4.02-23.202-1.047-31.282 5.066-8.075 6.112-17.599 22.286-14.342 28.011 4.008-8.7 10.261-16.52 18.624-22.537"/><path fill="#FFEBB2" d="M342.854 58.275a57.913 57.913 0 0 1 27.378 10.59c8.248 5.934 14.447 13.627 18.46 22.18 3.466-5.825-4.268-21.206-14.525-27.91-10.257-6.705-28.699-8.454-31.313-4.865"/><path fill="#C6E4A2" d="M388.697 91.041c1.917 9.365 1.494 19.339-1.704 29.073a57.096 57.096 0 0 1-15.586 24.254c7.921.756 18.925-9.679 22.3-22.318 3.375-12.635-.068-30.335-5.015-31.013"/><path fill="#A4BFDD" d="M292.429 122.391c-3.38 4.231.897 22.022 15.222 32.097 14.324 10.075 32.402 7.88 35.54 4.19a58.424 58.424 0 0 1-28.312-14.115 57.957 57.957 0 0 1-22.45-22.172Z"/><path fill="#99E2D1" d="M393.707 122.054a57.882 57.882 0 0 1-22.3 22.318 58.415 58.415 0 0 1-28.216 14.311c3.785 4.564 24.367 2.254 35.508-4.423 11.141-6.677 17.171-26.408 15.008-32.201"/><path fill="#FFA7B3" d="M297.23 91.347a57.495 57.495 0 0 1 14.342-28.012c-7.497-2.742-21.698 9.688-26.107 24.259-4.404 14.57-.865 31.249 6.96 34.788a57.172 57.172 0 0 1 4.805-31.04"/><path fill="#FCA" d="M342.854 58.275a58.681 58.681 0 0 1 31.313 4.855c3.207-6.012-17.139-17.107-31.35-17.107-14.21 0-30.999 9.72-31.24 17.308a58.604 58.604 0 0 1 31.281-5.06"/><path fill="#E9D59E" d="M393.707 122.054c6.768-1.302 11.801-17.959 6.732-34.83-5.079-16.87-20.783-25.825-26.267-24.094a57.497 57.497 0 0 1 14.529 27.911 57.179 57.179 0 0 1 5.006 31.013Z"/><path fill="#A499D7" d="M307.651 154.488a57.303 57.303 0 0 1-4.601-5.525c-5.952-8.121-9.446-17.271-10.616-26.572a56.681 56.681 0 0 1-7.361-28.011c0-2.291.141-4.555.401-6.777-5.434 1.498-11.983 23.051-6.04 39.019 5.94 15.974 23.17 28.763 28.212 27.866"/><path fill="#56B8B6" d="M378.699 154.256a57.553 57.553 0 0 1-6.727 2.628 58.19 58.19 0 0 1-28.786 1.794c-9.405 1.859-19.398 1.421-29.159-1.721a59.604 59.604 0 0 1-6.381-2.474c2.551 7.766 15.491 17.746 35.591 17.746 20.099.004 31.741-9.779 35.462-17.969"/><path fill="#68C280" d="M400.434 87.225c.296 2.34.447 4.727.447 7.15a56.679 56.679 0 0 1-7.179 27.679c-1.12 9.437-4.627 18.72-10.662 26.95a56.51 56.51 0 0 1-4.35 5.247c9.305.601 23.02-9.574 28.034-28.052 5.015-18.478-1.239-36.702-6.29-38.97"/><path fill="#FF7A7F" d="M285.474 87.598a56.794 56.794 0 0 1 3.88-6.044 57.527 57.527 0 0 1 22.223-18.214c6.504-6.978 14.843-12.448 24.613-15.59 2.2-.711 4.418-1.276 6.627-1.718-7.856-3.89-27.054-1.585-39.32 6.372-12.257 7.952-20.278 27.697-18.023 35.199"/><path fill="#FFBA86" d="M342.817 46.032a59.522 59.522 0 0 1 7.001 1.785c9.633 3.102 17.882 8.472 24.349 15.313a57.468 57.468 0 0 1 22.569 18.378 59.608 59.608 0 0 1 3.698 5.716c3.544-6.69-7.21-26.818-18.264-35.084-11.059-8.267-31.113-9.797-39.353-6.108Z"/><path fill="#835283" d="M285.474 87.598c1.644-13.842 8.253-26.171 18.027-35.199-12.215 6.819-21.98 18.014-26.649 32.257-4.719 14.379-3.393 29.268 2.582 41.962-2.637-12.976-.76-26.827 6.04-39.02Z"/><path fill="#8075B4" d="M307.651 154.488a57.507 57.507 0 0 1-28.212-27.866c2.769 13.61 10.494 26.272 22.723 35.081 12.339 8.881 27.041 12.238 41.074 10.53-13.276-1.526-25.989-7.574-35.59-17.745"/><path fill="#2E9D87" d="M378.699 154.256c-9.537 10.239-22.204 16.365-35.462 17.973 13.919 1.603 28.462-1.772 40.696-10.572 12.338-8.886 20.099-21.698 22.8-35.458a57.515 57.515 0 0 1-28.034 28.052"/><path fill="#549558" d="M400.434 87.225c6.882 12.156 8.845 25.984 6.295 38.978 5.834-12.625 7.096-27.369 2.418-41.611-4.714-14.38-14.611-25.652-26.982-32.443 9.838 8.963 16.529 21.261 18.265 35.08"/><path fill="#FF9952" d="M342.817 46.032c13.792-2.728 27.675-.305 39.353 6.112C371.858 42.74 358.094 37 342.977 37c-15.117 0-29.132 5.848-39.476 15.404 11.642-6.5 25.511-9.014 39.316-6.372Z"/><path fill="#FF4141" fill-rule="evenodd" d="M0 202.256 587.226 0h2.283a9.95 9.95 0 0 1 5.402 1.583L3.107 205.417A10.064 10.064 0 0 1 0 202.256Z" clip-rule="evenodd"/></svg>