<svg xmlns="http://www.w3.org/2000/svg" fill="none" viewBox="0 0 603 207"><rect width="601" height="207" x="1.509" fill="#19477C" rx="10"/><path fill="#fff" d="M355.644 121.659c3.748-11.431 2.251-24.22 0-35.214-4.705-10.041-10.608-20.638-20.296-27.61-9.817-7.07-22.275-9.582-33.519-10.865-11.095 1.336-23.157 3.224-32.841 10.196-9.811 7.063-16.013 18.43-20.718 28.632-2.144 10.87-3.7 23.585 0 34.861 3.748 11.432 12.372 20.024 20.718 27.611 9.769 5.379 20.826 10.587 32.798 10.587 11.971 0 23.702-5.294 33.562-10.806 8.186-7.55 16.596-16.11 20.296-27.392Z"/><path fill="#B4EEE0" d="M301.973 157.713c-11.966 0-23.211-3.069-32.985-8.443.38 7.587 15.217 16.575 33.236 16.575s32.022-11.052 33.124-16.8c-9.86 5.513-21.249 8.662-33.375 8.662"/><path fill="#D3D6E2" d="M268.988 149.27a67.044 67.044 0 0 1-18.633-28.776c-3.7-11.277-4.235-22.82-2.085-33.69-6.545 1.555-10.02 23.622-5.641 36.443 4.379 12.811 19.847 28.82 26.354 26.023"/><path fill="#FFC9DD" d="M270.138 60.347c9.683-6.967 20.596-11.04 31.69-12.372-5.395-4.721-27.236-1.23-36.721 5.946-9.48 7.175-20.661 26.161-16.838 32.882 4.706-10.212 12.047-19.392 21.864-26.456"/><path fill="#FFEBB2" d="M301.828 47.975a67.979 67.979 0 0 1 32.14 12.431c9.683 6.967 16.96 15.998 21.671 26.04 4.069-6.84-5.01-24.896-17.051-32.766-12.041-7.87-33.69-9.924-36.76-5.71"/><path fill="#C6E4A2" d="M355.644 86.44c2.251 10.993 1.754 22.702-2 34.128a67.026 67.026 0 0 1-18.297 28.472c9.298.888 22.216-11.362 26.178-26.199 3.962-14.832-.08-35.61-5.886-36.407"/><path fill="#A4BFDD" d="M242.634 123.242c-3.967 4.967 1.053 25.851 17.869 37.679 16.816 11.827 38.037 9.25 41.721 4.919a68.61 68.61 0 0 1-33.236-16.57c-11.03-6.079-20.178-15.115-26.354-26.028Z"/><path fill="#99E2D1" d="M361.525 122.846c-6.1 10.956-15.184 20.051-26.177 26.199-9.245 8.518-20.741 14.351-33.124 16.8 4.443 5.358 28.606 2.647 41.684-5.192 13.078-7.838 20.157-31 17.617-37.802"/><path fill="#FFA7B3" d="M248.27 86.798c2.427-12.281 8.271-23.692 16.837-32.883-8.801-3.218-25.472 11.373-30.648 28.477-5.171 17.105-1.016 36.685 8.17 40.839a67.099 67.099 0 0 1 5.641-36.438"/><path fill="#FCA" d="M301.829 47.975a68.89 68.89 0 0 1 36.759 5.7c3.764-7.058-20.12-20.083-36.802-20.083s-36.391 11.41-36.674 20.318a68.8 68.8 0 0 1 36.722-5.94"/><path fill="#E9D59E" d="M361.525 122.846c7.946-1.529 13.854-21.082 7.903-40.887-5.962-19.804-24.397-30.316-30.835-28.284 8.63 9.137 14.549 20.51 17.056 32.765a67.12 67.12 0 0 1 5.876 36.406Z"/><path fill="#A499D7" d="M260.503 160.921a67.015 67.015 0 0 1-5.4-6.486c-6.989-9.533-11.09-20.275-12.464-31.193-5.502-9.721-8.64-20.938-8.64-32.883 0-2.69.166-5.347.47-7.956-6.378 1.76-14.067 27.06-7.089 45.806 6.972 18.751 27.199 33.765 33.118 32.712"/><path fill="#56B8B6" d="M343.908 160.648a67.356 67.356 0 0 1-7.898 3.085 68.328 68.328 0 0 1-33.791 2.107c-11.041 2.181-22.772 1.668-34.231-2.021a69.707 69.707 0 0 1-7.49-2.904c2.994 9.117 18.184 20.832 41.779 20.832 23.596.005 37.262-11.48 41.631-21.094"/><path fill="#68C280" d="M369.423 81.96c.347 2.748.524 5.55.524 8.394a66.541 66.541 0 0 1-8.427 32.492c-1.315 11.079-5.432 21.976-12.517 31.637a66.676 66.676 0 0 1-5.106 6.16c10.923.706 27.023-11.239 32.91-32.931 5.886-21.692-1.455-43.085-7.384-45.747"/><path fill="#FF7A7F" d="M234.469 82.398a66.681 66.681 0 0 1 4.556-7.096 67.535 67.535 0 0 1 26.087-21.381c7.635-8.192 17.425-14.613 28.894-18.302a69.942 69.942 0 0 1 7.78-2.016c-9.224-4.566-31.76-1.86-46.159 7.48-14.389 9.336-23.804 32.514-21.158 41.32"/><path fill="#FFBA86" d="M301.786 33.603a69.914 69.914 0 0 1 8.218 2.096c11.308 3.64 20.991 9.945 28.584 17.976a67.459 67.459 0 0 1 26.493 21.574 70.082 70.082 0 0 1 4.342 6.71c4.159-7.854-8.464-31.482-21.441-41.186-12.982-9.705-36.524-11.501-46.196-7.17Z"/><path fill="#835283" d="M234.469 82.398c1.931-16.25 9.689-30.723 21.163-41.32-14.34 8.004-25.804 21.146-31.284 37.866-5.539 16.88-3.983 34.358 3.032 49.26-3.096-15.233-.893-31.493 7.089-45.806Z"/><path fill="#8075B4" d="M260.503 160.921a67.516 67.516 0 0 1-33.118-32.712c3.251 15.976 12.319 30.84 26.675 41.181 14.485 10.426 31.744 14.367 48.218 12.362-15.586-1.791-30.509-8.892-41.78-20.831"/><path fill="#2E9D87" d="M343.908 160.648c-11.196 12.02-26.066 19.211-41.63 21.099 16.339 1.882 33.412-2.08 47.773-12.41 14.485-10.432 23.596-25.473 26.766-41.625a67.527 67.527 0 0 1-32.909 32.931"/><path fill="#549558" d="M369.423 81.96c8.079 14.27 10.383 30.503 7.389 45.757 6.849-14.821 8.33-32.129 2.839-48.848-5.534-16.88-17.152-30.113-31.674-38.085 11.549 10.522 19.403 24.958 21.44 41.18"/><path fill="#FF9952" d="M301.786 33.603c16.19-3.203 32.487-.358 46.196 7.175C335.877 29.737 319.719 23 301.973 23s-34.198 6.865-46.341 18.083c13.667-7.63 29.948-10.581 46.154-7.48Z"/><path fill="#825282" d="M291.536 125.133s-.015-.016-.021-.025a25.52 25.52 0 0 1-11.157-10.511h-.002a24.557 24.557 0 0 1-9.088-12.218c-.78 2.419-1.198 5-1.185 7.685a24.433 24.433 0 0 0 5.998 15.943 24.6 24.6 0 0 0 4.328 3.925 24.257 24.257 0 0 0 14.211 4.483 24.236 24.236 0 0 0 8.044-1.41 24.532 24.532 0 0 1-11.132-7.869l.004-.003Z"/><path fill="#8075B3" d="M313.719 125.005s.011-.013.015-.021l-.034.015a25.208 25.208 0 0 1-11.064 2.608 25.142 25.142 0 0 1-11.081-2.484l-.042-.021a24.445 24.445 0 0 0 11.153 7.892 24.414 24.414 0 0 0 11.053-7.991v.002Z"/><path fill="#A3BEDC" d="M291.559 125.127a25.243 25.243 0 0 0 11.081 2.485 25.222 25.222 0 0 0 11.064-2.609 43.63 43.63 0 0 1-11.085-4.159 43.78 43.78 0 0 1-11.058 4.283h-.002Z"/><path fill="#56B7B5" d="M333.732 102.033a24.52 24.52 0 0 1 1.268 7.668 24.424 24.424 0 0 1-5.828 16.008 24.455 24.455 0 0 1-4.283 3.967 24.244 24.244 0 0 1-14.163 4.638 24.265 24.265 0 0 1-8.058-1.322 24.483 24.483 0 0 0 11.051-7.993c.004-.009.011-.013.015-.022a25.516 25.516 0 0 0 11.041-10.633h.002a24.523 24.523 0 0 0 8.953-12.315l.002.004Z"/><path fill="#2E9C86" d="M324.728 89.878a25.414 25.414 0 0 1 3.145 12.144 25.348 25.348 0 0 1-3.094 12.321c0 .003-.002.003-.002.005h.002a24.542 24.542 0 0 0 8.953-12.317 24.522 24.522 0 0 0-9.004-12.155v.002Z"/><path fill="#80D4BE" d="M324.779 114.345a25.448 25.448 0 0 0 3.094-12.321 25.381 25.381 0 0 0-3.144-12.142 43.941 43.941 0 0 1-4.09 12.265 43.996 43.996 0 0 1 4.14 12.201v-.003Z"/><path fill="#98E1D0" d="M320.637 102.142a44.367 44.367 0 0 1-14.392 16.451 43.997 43.997 0 0 1-3.632 2.248 43.506 43.506 0 0 0 11.085 4.16l.034-.015a25.512 25.512 0 0 0 11.041-10.634l.002-.004a43.803 43.803 0 0 0-4.14-12.206h.002Z"/><path fill="#FF7A7F" d="M280.145 90.12s.013-.022.017-.033a25.511 25.511 0 0 1 11.209-10.803c.003-.002.009-.002.011-.004a24.454 24.454 0 0 1 10.95-7.867 24.344 24.344 0 0 0-8.058-1.322 24.208 24.208 0 0 0-14.298 4.74 24.716 24.716 0 0 0-3.973 3.667A24.446 24.446 0 0 0 270 94.706c.015 2.68.46 5.262 1.268 7.668a24.538 24.538 0 0 1 8.875-12.253h.002Z"/><path fill="#E8666D" d="M280.358 114.59h.002s-.002 0-.002-.002a25.418 25.418 0 0 1-3.227-12.289 25.408 25.408 0 0 1 3.014-12.18 24.552 24.552 0 0 0-8.875 12.255 24.53 24.53 0 0 0 9.088 12.216Z"/><path fill="#FFA6B2" d="m280.168 90.104-.002-.017c-.004.01-.013.023-.017.034a25.422 25.422 0 0 0-3.018 12.18 25.421 25.421 0 0 0 3.227 12.289 43.944 43.944 0 0 1 4.02-12.272 43.914 43.914 0 0 1-4.21-12.212v-.002Z"/><path fill="#FFD1D1" d="M298.956 118.629a44.311 44.311 0 0 1-14.576-16.314 43.982 43.982 0 0 0-4.02 12.273l.002.004a25.522 25.522 0 0 0 11.157 10.512l.042.021a43.6 43.6 0 0 0 11.058-4.286 43.084 43.084 0 0 1-3.663-2.21Z"/><path fill="#68C180" d="M302.334 71.411a24.37 24.37 0 0 1 8.044-1.41 24.243 24.243 0 0 1 14.384 4.606 24.466 24.466 0 0 1 3.98 3.6 24.434 24.434 0 0 1 6.175 16.143 24.518 24.518 0 0 1-1.185 7.685 24.513 24.513 0 0 0-9.004-12.155s-.002 0-.002-.002a25.524 25.524 0 0 0-11.346-10.714c-.003-.002-.009-.002-.011-.004a24.451 24.451 0 0 0-11.035-7.749Z"/><path fill="#FF9852" d="M291.384 79.278a25.207 25.207 0 0 1 10.978-2.567 25.175 25.175 0 0 1 11.005 2.447 24.436 24.436 0 0 0-11.035-7.744 24.453 24.453 0 0 0-10.946 7.866l-.002-.002Z"/><path fill="#FFB985" d="M302.4 83.465a43.68 43.68 0 0 1 10.975-4.299c.002 0 .005 0 .005-.002-.003-.002-.009-.002-.011-.004a25.199 25.199 0 0 0-11.005-2.447 25.23 25.23 0 0 0-10.978 2.567c-.002.002-.008.002-.01.004a43.564 43.564 0 0 1 11.022 4.18h.002Z"/><path fill="#C5E3A1" d="M302.4 83.465a44.305 44.305 0 0 1 18.239 18.683 43.96 43.96 0 0 0 4.09-12.266h-.003a25.506 25.506 0 0 0-11.346-10.716c-.002 0-.005 0-.005.002a43.408 43.408 0 0 0-10.975 4.296Z"/><path fill="#EFCAA8" d="M284.378 102.313a44.371 44.371 0 0 1 18.02-18.85 43.71 43.71 0 0 0-11.02-4.18l-.004-.003a25.547 25.547 0 0 0-11.21 10.805l.002.017a44.083 44.083 0 0 0 4.212 12.211Z"/><path fill="#fff" d="M306.162 85.76a44.204 44.204 0 0 0-3.762-2.297 44.36 44.36 0 0 0-18.024 18.85 44.337 44.337 0 0 0 18.237 18.528 43.997 43.997 0 0 0 3.632-2.248 44.392 44.392 0 0 0 14.392-16.45 44.166 44.166 0 0 0-2.13-3.7 44.436 44.436 0 0 0-12.345-12.684Z"/><path fill="#FF4141" fill-rule="evenodd" d="M0 202.256 587.226 0h2.283a9.95 9.95 0 0 1 5.402 1.583L3.107 205.417A10.064 10.064 0 0 1 0 202.256Z" clip-rule="evenodd"/></svg>